# xmcd CD database file
#
# Track frame offsets:
#	150
#	22422
#	47395
#	72655
#	88905
#	152690
#
# Disc length: 2264 seconds
#
# Revision: 4
# Processed by: cddbd v1.5.2PL0 Copyright (c) Steve Scherf et al.
# Submitted via: CDex 1.51
#
DISCID=4f08d606
DTITLE=Allan Holdsworth - Metal Fatigue
DYEAR=1985
DGENRE=Jazz
TTITLE0=Metal Fatigue
TTITLE1=Home
TTITLE2=Devil Take the Hindmost
TTITLE3=Panic Station
TTITLE4=The Un-Merry Go-Round
TTITLE5=In the Mystery
EXTD=1985\nAllan Holdsworth: guitar, guitar synthesizer\nJimmy Johnson: bass\nChad Wackerman: drums, percussion\nPaul Williams: vocals\nGary Husband: drums\nGary Willis: bass\nAlan Pasqua: keyboards\nPaul Korda: vocals\n YEAR: 1985
EXTT0=
EXTT1=
EXTT2=
EXTT3=
EXTT4=Gary Willis: bass\nGary Husband: drums\nAlan Pasqua: keyboards\n
EXTT5=Paul Korda: vocals\nMac Hine: drums, percussion\n
PLAYORDER=
